<?xml version="1.0" encoding="UTF-8" standalone="no"?>
<svg width="650" height="650" version="1.1" xmlns="http://www.w3.org/2000/svg" xmlns:xlink="http://www.w3.org/1999/xlink">
	<g stroke="none" stroke-width="1" fill="none" fill-rule="evenodd">
        <path fill="#666666" id="Background" stroke="null" d="m649.67062,584.20086c0,35.66042 -29.23518,64.83713 -64.96706,64.83713l-519.7365,0c-35.73188,0 -64.96706,-29.17671 -64.96706,-64.83713l0,-518.69706c0,-35.66042 29.23518,-64.83713 64.96706,-64.83713l519.7365,0c35.73188,0 64.96706,29.17671 64.96706,64.83713l0,518.69706l0,0z"/>
        <path fill="#FFFFFF" id="Outer" stroke="null" d="m328.95112,258.59446l-52.16,0l0,154.72l52.16,0c44.36,0 75.23,-27.33 75.23,-77c0,-50.4 -30.87,-77.72 -75.23,-77.72z" />
        <path fill="#FFFFFF" id="Inner" stroke="null" d="m326.48112,161.33446l-150.48,0l0,349.23l150.48,0c103.22,0 180.22,-61.62 180.22,-174.09c0,-113.51 -77,-174.62 -180.22,-175.14zm4.6,295.27l-104,0l0,-241.3l104,0c71.32,0.35 124.55,42.58 124.55,121c0,77.72 -53.23,120.3 -124.55,120.3z"/>
 	</g>
</svg>